<svg xmlns="http://www.w3.org/2000/svg" version="1.1" xmlns:xlink="http://www.w3.org/1999/xlink" xmlns:svgjs="http://svgjs.dev/svgjs" viewBox="0 0 1422 800" opacity="0.9"><defs><linearGradient x1="50%" y1="0%" x2="50%" y2="100%" id="ccchaos-grad"><stop stop-color="#7ead43" stop-opacity="1" offset="0%"></stop><stop stop-color="#ff5f3f" stop-opacity="1" offset="100%"></stop></linearGradient></defs><g stroke-width="4" stroke="url(#ccchaos-grad)" fill="none" stroke-linecap="round"><path d="M731.62 -313.61Q738.93 -307.09 745.81 -300.61 758.29 -288.06 769.85 -276.04 780.5 -264.94 791.01 -254.27 802.06 -243.86 813.89 -233.34 820.46 -227.92 827.51 -222.38 835.09 -216.72 843.27 -210.95 852.09 -205.11 861.58 -199.23 871.76 -193.36 882.65 -187.55 894.25 -181.84 906.54 -176.27 919.51 -170.86 933.1 -165.64 947.28 -160.6 961.98 -155.72 977.13 -150.95 992.66 -146.26 1008.46 -141.57 1024.45 -136.82 1040.52 -131.92 1056.56 -126.83 1072.47 -121.47 1088.14 -115.81 1103.46 -109.83 1118.33 -103.52 1132.64 -96.9 1146.31 -90.04 1159.26 -82.99 1171.4 -75.84 1182.68 -68.71 1193.05 -61.69 1202.48 -54.9 1210.95 -48.43 1224.56 -37.02 1235.43 -27.08 1248.43 -8.41 1252.39 1.52 1255.23 11.47 1259.23 23.4 1262.23 30.54 1266 38.26 1258.32 49.12 1254.99 59.98 1256.24 70.84 1261.98 81.7 1271.84 92.56 1285.2 103.42 1301.22 114.28 1318.87 125.14 1337.03 136 1354.56 146.86 1370.34 157.72 1383.37 168.58 1392.82 179.44 1398.1 190.3 1398.86 201.16 1395.06 212.02 1386.94 222.88 1375.02 233.74 1360.05 244.6 1342.98 255.46 1324.9 266.32 1306.95 277.18 1290.27 288.05 1275.92 298.91 1264.82 309.77 1257.66 320.63 1254.9 331.49 1256.72 342.35 1262.99 353.21 1273.33 364.07 1287.07 374.93 1303.35 385.79 1321.13 396.65 1339.28 407.51 1356.65 418.37 1372.14 429.23 1384.76 440.09 1393.72 450.95 1398.44 461.81 1398.63 472.67 1394.27 483.53 1385.65 494.39 1373.3 505.25 1358.01 516.11 1340.75 526.97 1322.63 537.83 1304.77 548.69 1288.33 559.55 1274.34 570.41 1263.7 581.27 1257.07 592.13 1254.88 602.99 1257.26 613.85 1264.07 624.71 1274.88 635.57 1288.99 646.44 1305.51 657.3 1323.4 668.16 1341.51 679.02 1358.71 689.88 1373.89 700.74 1386.1 711.6 1391.67 726.28 1377.75 728.7 1365.61 729.53 1352.44 732.92 1338.31 739.03 1323.33 747.84 1307.58 759.21 1291.2 772.79 1274.29 788.13 1256.98 804.64 1239.41 821.67 1221.71 838.52 1204.02 854.51 1186.47 868.98 1169.17 881.38 1152.25 891.27 1135.83 898.36 1119.99 902.51 1104.83 903.8 1090.43 902.45 1076.84 898.85 1064.11 893.54 1052.27 887.17 1041.33 880.45 1031.31 874.13 1022.17 868.93 1006.83 865.88 993.78 871.02 988.41 878.92 983.57 889.83 979.18 903.46 975.14 919.33 971.34 936.83 967.68 955.26 964.07 973.84 960.39 991.77 956.56 1008.3 952.48 1022.74 943 1041.64 932.11 1050.91 918.35 1045.13 902.67 1032.85 893.69 1024.63 884.06 1016.49 873.82 1009.27 862.98 1003.74 851.59 1000.61 839.69 1000.42 827.35 1003.54 814.63 1010.16 801.59 1020.24 788.31 1033.54 774.84 1049.6 761.28 1067.82 747.69 1087.44 734.13 1107.62 720.68 1127.46 707.4 1146.11 695.17 1151.9 682.27 1148.03 675.32 1139.93 668.02 1128.45 660.34 1113.97 652.28 1097.06 643.82 1078.42 634.95 1058.85 625.7 1039.22 616.06 1020.37 606.07 1003.1 595.75 988.1 585.13 975.93 574.24 966.95 563.14 961.35 551.86 959.1 540.45 959.97 528.95 963.54 517.41 969.23 505.87 976.36 494.38 984.13 482.96 991.75 471.67 998.4 460.53 1003.38 449.55 1006.04 438.77 1005.93 428.2 1002.73 417.84 996.34 407.7 986.83 397.77 974.47 388.05 959.7 378.52 943.1 369.15 925.36 359.94 907.22 350.84 889.44 341.84 872.76 332.9 857.84 323.98 845.24 315.06 835.34 306.11 828.39 297.09 824.44 287.97 823.37 278.73 824.86 269.36 828.49 259.82 833.65 250.11 839.7 240.23 845.92 230.17 851.6 219.93 856.07 209.52 858.73 198.96 859.1 188.27 856.86 177.47 851.83 166.59 844.01 155.67 833.56 144.73 820.81 133.81 806.22 122.96 790.35 112.21 773.85 101.6 757.37 91.17 741.58 80.94 727.09 81.76 716.3 83.41 705.51 85.8 694.72 88.78 683.93 92.14 673.14 95.69 662.35 99.19 651.56 102.43 640.77 105.19 629.98 107.3 619.19 108.64 608.4 109.11 597.61 108.68 586.82 107.38 576.03 105.29 565.24 102.56 554.45 99.34 543.66 95.84 532.88 92.29 522.09 88.91 511.3 85.92 500.51 83.5 489.72 81.81 478.93 80.96 468.14 81 457.35 81.92 446.56 83.67 435.77 86.15 424.98 89.18 414.19 92.58 403.4 96.13 392.61 99.61 381.82 102.8 371.03 105.49 360.24 107.52 349.45 108.75 338.66 109.1 327.88 108.56 317.09 107.16 306.3 104.98 295.51 102.18 284.72 98.91 273.93 95.4 263.14 91.86 252.35 88.51 241.56 85.58 230.77 83.25 219.98 81.66 209.19 80.91 198.4 81.06 187.61 82.1 176.82 83.95 166.03 86.5 155.25 89.59 144.46 93.02 133.67 96.58 122.88 100.03 112.09 103.17 101.3 105.78 90.51 107.72 79.72 108.84 68.93 109.08 58.14 111.71 40.47 122.99 30.81 139.02 25.02 155.23 18.35 163.52 14.19 171.96 9.43 180.58 4.06 189.37 -1.89 198.36 -8.4 207.55 -15.36 216.93 -22.67 226.5 -30.19 236.25 -37.8 246.15 -45.36 256.19 -52.75 266.33 -59.87 276.56 -66.63 286.84 -72.98 297.14 -78.9 307.42 -84.39 317.66 -89.49 327.83 -94.26 337.89 -98.76 347.82 -103.1 357.6 -107.36 367.22 -111.63 376.65 -116 385.89 -120.54 394.93 -125.3 403.79 -130.32 412.46 -135.6 420.97 -141.13 429.33 -146.9 437.57 -152.86 445.71 -158.94 453.79 -165.1 461.85 -171.28 469.92 -177.41 478.04 -183.46 486.27 -189.38 494.63 -195.17 503.17 -200.81 511.92 -206.32 520.93 -211.72 530.22 -217.06 539.82 -222.37 549.75 -227.69 560.02 -233.08 570.65 -238.57 581.63 -244.17 592.96 -249.92 604.63 -255.8 616.6 -261.79 628.86 -267.88 641.37 -274 654.08 -280.11 666.95 -286.15 679.92 -292.06 692.93 -297.8 705.93 -303.32 725.23 -311.1 731.62 -313.61" stroke-dasharray="3 3" transform="rotate(0, 711, 400)" opacity="0.05"></path><path d="M717.15 -287.55Q728.59 -275.55 739.6 -263.83 750.48 -252.77 761.68 -242.12 774.04 -231.85 787.48 -221.6 794.96 -216.39 802.95 -211.08 811.49 -205.65 820.62 -200.1 830.34 -194.44 840.68 -188.69 851.63 -182.89 863.2 -177.07 875.35 -171.28 888.07 -165.57 901.31 -159.98 915.03 -154.56 929.16 -149.34 943.66 -144.33 958.43 -139.53 973.41 -134.92 988.52 -130.48 1003.65 -126.15 1018.72 -121.88 1033.64 -117.58 1048.31 -113.2 1062.65 -108.64 1076.57 -103.85 1089.98 -98.77 1102.81 -93.34 1114.98 -87.56 1126.45 -81.42 1137.14 -74.94 1147.03 -68.17 1156.09 -61.18 1164.3 -54.05 1171.66 -46.9 1183.5 -33.08 1193 -20.13 1202.42 -2.96 1207.13 6.8 1217.53 23.32 1226.23 34.24 1232.82 47.93 1236.01 66.44 1241.64 76.73 1251.02 87.02 1263.57 97.31 1278.58 107.6 1295.14 117.88 1312.29 128.17 1329 138.46 1344.3 148.75 1357.28 159.04 1367.17 169.32 1373.39 179.61 1375.57 189.9 1373.59 200.19 1367.56 210.48 1357.83 220.76 1344.99 231.05 1329.78 241.34 1313.11 251.63 1295.96 261.92 1279.35 272.2 1264.25 282.49 1251.55 292.78 1242.01 303.07 1236.19 313.36 1234.43 323.64 1236.83 333.93 1243.26 344.22 1253.33 354.51 1266.46 364.8 1281.85 375.09 1298.62 385.37 1315.76 395.66 1332.26 405.95 1347.16 416.24 1359.56 426.53 1368.75 436.81 1374.17 447.1 1375.51 457.39 1372.68 467.68 1365.86 477.97 1355.45 488.25 1342.05 498.54 1326.47 508.83 1309.63 519.12 1292.5 529.41 1276.12 539.7 1261.44 549.98 1249.33 560.27 1240.51 570.56 1235.49 580.85 1234.58 591.14 1237.82 601.42 1245.03 611.71 1255.78 622 1269.44 632.29 1285.19 642.58 1302.11 652.87 1319.21 663.15 1335.46 673.44 1349.92 683.73 1362.4 699.93 1354.93 709.74 1345.75 716.11 1335.55 724.93 1324.37 736.03 1312.24 749.09 1299.23 763.72 1285.41 779.4 1270.88 795.55 1255.71 811.56 1240.01 826.83 1223.89 840.8 1207.46 852.95 1190.84 862.88 1174.13 870.31 1157.45 875.1 1140.92 877.25 1124.64 876.91 1108.71 874.39 1093.23 870.11 1078.27 864.6 1063.91 858.46 1050.22 852.34 1037.25 846.89 1025.03 842.73 1013.6 840.42 1002.97 840.4 993.14 843.01 984.09 848.43 975.82 856.67 968.27 867.6 961.42 880.94 955.2 896.25 949.55 912.99 944.4 930.52 939.68 948.16 935.3 965.22 931.18 981.03 927.23 994.98 923.36 1006.56 908.96 1020.65 897.41 1016.66 891.96 1010.19 886.04 1002.73 879.6 995.02 872.63 987.79 865.1 981.75 857 977.57 848.34 975.8 839.11 976.86 829.36 981.03 819.08 988.39 808.33 998.87 797.14 1012.19 785.56 1027.93 773.64 1045.53 761.43 1064.3 749 1083.49 736.4 1102.33 723.69 1120.04 710.01 1125.58 695.19 1122.35 687.07 1115.12 678.55 1104.76 669.62 1091.58 660.29 1076.04 650.6 1058.72 640.56 1040.33 630.21 1021.59 619.57 1003.27 608.69 986.09 597.61 970.7 586.37 957.66 575.02 947.37 563.6 940.08 552.16 935.89 540.73 934.69 529.36 936.23 518.08 940.09 506.93 945.74 495.93 952.53 485.12 959.79 474.5 966.79 464.1 972.85 453.92 977.32 443.97 979.67 434.24 979.5 424.73 976.52 415.42 970.64 406.31 961.9 397.36 950.53 388.56 936.88 379.88 921.46 371.29 904.83 362.77 887.64 354.28 870.56 345.79 854.25 337.27 839.33 328.7 826.3 320.05 815.59 311.3 807.46 302.42 802.07 293.41 799.36 284.25 799.18 274.93 801.21 265.45 805 255.81 810.03 246.03 815.69 236.1 821.38 226.05 826.45 215.9 830.34 205.67 832.53 195.38 832.63 185.06 830.34 174.75 825.52 164.48 818.16 154.27 808.4 144.17 796.53 134.2 782.92 124.39 768.05 114.77 752.49 105.37 736.79 106.87 726.15 108.98 715.5 111.55 704.85 114.45 694.2 117.5 683.55 120.51 672.9 123.32 662.25 125.76 651.6 127.67 640.95 128.96 630.3 129.54 619.66 129.37 609.01 128.48 598.36 126.91 587.71 124.75 577.06 122.13 566.41 119.21 555.76 116.16 545.11 113.16 534.46 110.38 523.82 107.99 513.17 106.14 502.52 104.92 491.87 104.42 481.22 104.65 470.57 105.62 459.92 107.26 449.27 109.47 438.62 112.12 427.98 115.07 417.33 118.12 406.68 121.11 396.03 123.85 385.38 126.19 374.73 127.99 364.08 129.13 353.43 129.56 342.78 129.25 332.14 128.21 321.49 126.51 310.84 124.25 300.19 121.56 289.54 118.59 278.89 115.54 268.24 112.57 257.59 109.86 246.95 107.57 236.3 105.83 225.65 104.76 215 104.4 204.35 104.79 193.7 105.9 183.05 107.67 172.4 109.98 161.76 112.71 151.11 115.68 140.46 118.74 129.81 121.69 119.16 124.37 108.51 126.61 97.86 128.28 87.21 129.28 76.57 133.42 59.39 145.35 50.29 153.36 47.38 161.34 44.02 169.32 40.1 177.33 35.57 185.41 30.41 193.57 24.62 201.86 18.28 210.28 11.44 218.85 4.23 227.58 -3.23 236.47 -10.82 245.54 -18.4 254.77 -25.85 264.16 -33.04 273.69 -39.88 283.36 -46.32 293.13 -52.3 302.99 -57.82 312.9 -62.89 322.85 -67.57 332.81 -71.9 342.74 -75.98 352.62 -79.89 362.42 -83.74 372.11 -87.62 381.67 -91.6 391.07 -95.78 400.31 -100.2 409.36 -104.9 418.21 -109.91 426.87 -115.2 435.34 -120.78 443.61 -126.58 451.69 -132.57 459.62 -138.69 467.39 -144.86 475.05 -151.03 482.61 -157.14 490.11 -163.14 497.59 -169.01 505.08 -174.71 512.62 -180.25 520.26 -185.63 528.03 -190.88 535.97 -196.02 544.13 -201.1 552.53 -206.16 561.21 -211.23 570.19 -216.37 579.51 -221.59 589.17 -226.92 599.19 -232.36 609.58 -237.91 620.34 -243.56 631.45 -249.26 642.9 -254.99 654.68 -260.7 666.75 -266.35 679.07 -271.89 691.61 -277.29 710.74 -285.03 717.15 -287.55" stroke-dasharray="2 2" transform="rotate(4.185185185185185, 711, 400)" opacity="0.09"></path><path d="M700.68 -261.47Q711.89 -250.4 723.44 -239.6 736.09 -229.33 749.71 -219.32 757.19 -214.4 765.13 -209.47 773.54 -204.5 782.45 -199.46 791.89 -194.31 801.86 -189.04 812.35 -183.63 823.38 -178.1 834.91 -172.46 846.94 -166.72 859.42 -160.93 872.32 -155.13 885.59 -149.38 899.18 -143.71 913.03 -138.18 927.08 -132.84 941.24 -127.71 955.46 -122.82 969.66 -118.18 983.75 -113.77 997.66 -109.57 1011.31 -105.53 1024.63 -101.62 1037.54 -97.74 1049.98 -93.84 1061.88 -89.83 1073.18 -85.64 1083.84 -81.19 1093.82 -76.43 1103.08 -71.3 1111.61 -65.8 1119.39 -59.9 1126.42 -53.63 1132.72 -47.02 1142.87 -33.06 1151.1 -18.84 1156.74 -5.27 1161.27 7.28 1167.68 23.41 1172.89 32.36 1186.04 41.46 1198.97 48.6 1206 52.33 1213.96 56.66 1216.08 66.52 1221.87 76.37 1231 86.23 1242.98 96.09 1257.15 105.95 1272.74 115.8 1288.89 125.66 1304.71 135.52 1319.35 145.38 1331.99 155.23 1341.96 165.09 1348.69 174.95 1351.82 184.81 1351.19 194.66 1346.82 204.52 1338.96 214.38 1328.03 224.24 1314.64 234.09 1299.51 243.95 1283.48 253.81 1267.42 263.67 1252.22 273.52 1238.7 283.38 1227.6 293.24 1219.54 303.1 1214.96 312.95 1214.1 322.81 1217.01 332.67 1223.54 342.53 1233.32 352.38 1245.82 362.24 1260.36 372.1 1276.14 381.96 1292.29 391.81 1307.94 401.67 1322.21 411.53 1334.35 421.39 1343.66 431.25 1349.66 441.1 1352.01 450.96 1350.57 460.82 1345.44 470.68 1336.89 480.53 1325.38 490.39 1311.56 500.25 1296.16 510.11 1280.05 519.96 1264.1 529.82 1249.19 539.68 1236.12 549.54 1225.63 559.39 1218.27 569.25 1214.46 579.11 1214.4 588.97 1218.1 598.83 1225.35 608.68 1235.76 618.54 1248.76 628.4 1263.63 638.26 1279.56 648.11 1295.68 657.97 1311.1 667.83 1324.99 677.69 1336.57 687.54 1331.83 694.47 1326.22 703.57 1319.71 714.65 1312.27 727.44 1303.91 741.54 1294.64 756.49 1284.47 771.8 1273.44 786.93 1261.6 801.35 1249 814.57 1235.71 826.15 1221.8 835.73 1207.36 843.07 1192.47 848.03 1177.22 850.58 1161.71 850.85 1146.04 849.07 1130.31 845.58 1114.61 840.83 1099.03 835.32 1083.67 829.6 1068.62 824.25 1053.95 819.83 1039.73 816.84 1026.03 815.73 1012.91 816.85 1000.4 820.43 988.56 826.57 977.39 835.26 966.92 846.33 957.16 859.49 948.09 874.34 939.71 890.38 931.98 907.05 924.88 923.76 918.35 939.9 912.36 954.88 906.85 968.17 897.14 986.71 888.27 997.38 880.07 995.13 871.85 986.68 862.91 972.93 853.17 959.66 841.63 953.2 828.79 953.76 821.55 958.85 813.83 966.84 805.62 977.61 796.92 990.87 787.77 1006.24 778.16 1023.18 768.13 1041.09 757.71 1059.32 746.94 1077.17 735.86 1093.97 719.37 1099.24 701.67 1096.59 692.14 1090.17 682.27 1080.87 672.08 1068.93 661.6 1054.72 650.88 1038.74 639.95 1021.55 628.85 1003.81 617.64 986.17 606.34 969.28 595.01 953.74 583.68 940.09 572.39 928.75 561.19 920.03 550.11 914.08 539.17 910.93 528.4 910.44 517.83 912.36 507.47 916.28 497.34 921.72 487.43 928.11 477.77 934.85 468.34 941.3 459.14 946.87 450.15 951 432.85 951.92 416.03 945.4 407.84 937.59 399.74 927.34 391.7 914.93 383.68 900.76 375.67 885.32 367.63 869.15 359.54 852.84 351.37 836.97 343.11 822.09 334.74 808.71 326.24 797.22 317.6 787.96 308.82 781.1 299.89 776.71 290.82 774.74 281.61 774.98 272.26 777.14 262.8 780.81 253.24 785.53 243.59 790.76 233.88 795.95 224.14 800.57 214.38 804.12 204.65 806.15 194.95 806.3 185.32 804.32 175.8 800.06 166.39 793.49 157.13 784.72 148.04 773.96 139.13 761.52 130.42 747.8 132.27 737.29 134.49 726.78 136.96 716.27 139.53 705.76 142.08 695.25 144.46 684.74 146.54 674.23 148.2 663.72 149.36 653.2 149.95 642.69 149.95 632.18 149.34 621.67 148.16 611.16 146.48 600.65 144.39 590.14 142.01 579.63 139.46 569.12 136.88 558.61 134.42 548.1 132.21 537.59 130.37 527.08 129 516.57 128.18 506.06 127.95 495.55 128.32 485.04 129.28 474.53 130.77 464.01 132.71 453.5 135 442.99 137.5 432.48 140.08 421.97 142.6 411.46 144.93 400.95 146.93 390.44 148.49 379.93 149.54 369.42 150 358.91 149.87 348.4 149.13 337.89 147.84 327.38 146.07 316.87 143.91 306.36 141.48 295.85 138.91 285.34 136.34 274.83 133.92 264.32 131.78 253.81 130.04 243.3 128.78 232.78 128.08 222.27 127.98 211.76 128.48 201.25 129.56 190.74 131.15 180.23 133.17 169.72 135.51 159.21 138.04 148.7 140.62 138.19 143.12 127.68 145.38 117.17 147.3 106.66 148.76 96.15 153.98 79.03 166.41 69.2 174.44 65.41 182.41 60.99 190.33 55.92 198.23 50.23 206.16 43.97 214.12 37.21 222.16 30.05 230.28 22.63 238.51 15.08 246.86 7.51 255.35 0.07 263.98 -7.13 272.76 -13.99 281.69 -20.45 290.76 -26.45 299.97 -31.96 309.3 -36.99 318.75 -41.57 328.29 -45.76 337.89 -49.63 347.55 -53.26 357.23 -56.75 366.91 -60.2 376.56 -63.71 386.15 -67.35 395.66 -71.22 405.06 -75.35 414.34 -79.8 423.46 -84.57 432.41 -89.68 441.18 -95.09 449.76 -100.77 458.13 -106.67 466.29 -112.73 474.25 -118.88 482.01 -125.07 489.59 -131.21 496.99 -137.27 504.24 -143.18 511.36 -148.93 525.3 -159.76 539.13 -170.05 553.14 -179.7 567.5 -189.2 574.97 -193.97 582.67 -198.8 590.63 -203.71 598.88 -208.74 607.45 -213.87 616.36 -219.11 625.62 -224.43 635.25 -229.81 645.26 -235.23 655.64 -240.63 666.39 -245.98 677.49 -251.26 694.81 -258.95 700.68 -261.47" stroke-dasharray="9 1" transform="rotate(8.37037037037037, 711, 400)" opacity="0.12"></path><path d="M687.56 -235.41Q700.56 -225.22 714.46 -215.31 722.02 -210.52 729.97 -205.8 738.35 -201.13 747.16 -196.48 756.43 -191.82 766.15 -187.11 776.32 -182.32 786.95 -177.42 798.01 -172.39 809.48 -167.21 821.34 -161.87 833.55 -156.39 846.08 -150.78 858.88 -145.06 871.9 -139.29 885.08 -133.5 898.37 -127.75 911.7 -122.09 925.02 -116.56 938.26 -111.22 951.34 -106.11 964.22 -101.26 976.81 -96.67 989.07 -92.36 1000.92 -88.3 1012.33 -84.47 1023.23 -80.82 1033.59 -77.28 1043.37 -73.8 1052.53 -70.29 1068.61 -62.73 1082.74 -54.41 1093.68 -44.28 1102.87 -32.94 1109.56 -19.8 1115.09 -5.95 1119.41 8.14 1123.49 21.74 1132.32 40.79 1140.47 51.68 1150.3 57.39 1162.24 62.14 1169.56 64.26 1177.71 66.44 1186.71 68.83 1196.57 71.56 1202.71 81.13 1211.8 90.7 1223.38 100.26 1236.86 109.83 1251.57 119.4 1266.75 128.97 1281.65 138.54 1295.5 148.11 1307.6 157.68 1317.34 167.24 1324.22 176.81 1327.91 186.38 1328.2 195.95 1325.09 205.52 1318.74 215.09 1309.46 224.66 1297.72 234.22 1284.13 243.79 1269.36 253.36 1254.17 262.93 1239.33 272.5 1225.58 282.07 1213.63 291.64 1204.07 301.21 1197.4 310.77 1193.95 320.34 1193.9 329.91 1197.24 339.48 1203.81 349.05 1213.28 358.62 1225.16 368.19 1238.86 377.75 1253.68 387.32 1268.88 396.89 1283.67 406.46 1297.31 416.03 1309.11 425.6 1318.48 435.17 1324.94 444.74 1328.15 454.3 1327.97 463.87 1324.39 473.44 1317.6 483.01 1307.95 492.58 1295.92 502.15 1282.11 511.72 1267.24 521.29 1252.05 530.85 1237.32 540.42 1223.78 549.99 1212.13 559.56 1202.96 569.13 1196.72 578.7 1193.74 588.27 1194.16 597.84 1197.97 607.41 1204.98 616.97 1214.82 626.54 1226.99 636.11 1240.89 645.68 1255.81 655.25 1271 664.82 1285.67 674.39 1299.1 683.96 1296.14 695.21 1292.52 707.85 1288.19 721.53 1283.11 735.83 1277.24 750.3 1270.57 764.49 1263.08 777.93 1254.78 790.21 1245.67 800.96 1235.79 809.88 1225.15 816.77 1213.8 821.5 1201.79 824.06 1189.18 824.56 1176.03 823.19 1162.41 820.23 1148.4 816.07 1134.07 811.12 1119.51 805.87 1104.79 800.81 1090.01 796.43 1075.24 793.2 1060.56 791.51 1046.05 791.71 1031.79 794.05 1017.83 798.68 1004.26 805.63 991.11 814.83 978.45 826.09 966.32 839.13 954.74 853.57 943.74 868.96 933.35 884.8 923.57 900.57 914.4 915.73 905.83 929.8 897.86 942.31 890.45 952.88 877.42 965.93 865.76 971.66 855.87 966.44 846.71 956.5 838.15 943.6 829.6 932.18 812.94 932.63 799.69 945.51 793.63 956.46 787.19 969.59 780.35 984.52 773.09 1000.79 765.42 1017.84 757.34 1035.11 748.85 1051.99 739.96 1067.91 730.47 1072.06 720.64 1074.11 710.5 1073.75 700.09 1070.78 689.45 1065.11 678.61 1056.8 667.62 1046.04 656.51 1033.12 645.33 1018.45 634.12 1002.5 622.92 985.83 611.76 968.99 600.69 952.57 589.74 937.11 578.93 923.11 568.3 911 557.87 901.1 547.64 893.63 537.65 888.7 527.9 886.27 518.39 886.22 509.12 888.27 500.1 892.08 491.31 897.2 482.74 903.15 474.39 909.37 466.22 915.34 458.22 920.53 442.69 925.69 427.45 924.91 419.93 920.52 412.43 913.76 404.92 904.73 397.37 893.66 389.77 880.84 382.09 866.69 374.31 851.65 366.43 836.21 358.42 820.9 350.28 806.2 342 792.58 333.58 780.44 325.02 770.12 316.32 761.87 307.5 755.81 298.57 751.98 289.53 750.3 280.41 750.6 271.22 752.6 261.99 755.95 252.74 760.24 243.48 765 234.25 769.77 225.06 774.08 215.94 777.49 206.91 779.59 197.99 780.07 189.2 778.67 180.56 775.25 172.08 769.75 163.76 762.22 155.62 752.81 157.51 742.51 159.58 732.21 161.71 721.92 163.81 711.62 165.77 701.33 167.48 691.03 168.87 680.73 169.86 670.44 170.39 660.14 170.45 649.85 170.03 639.55 169.15 629.26 167.86 618.96 166.22 608.66 164.32 598.37 162.24 588.07 160.11 577.78 158.01 567.48 156.07 557.18 154.38 546.89 153.02 536.59 152.06 526.3 151.56 516 151.53 505.71 151.99 495.41 152.89 485.11 154.21 474.82 155.87 464.52 157.79 454.23 159.88 443.93 162.01 433.64 164.1 423.34 166.03 413.04 167.7 402.75 169.03 392.45 169.96 382.16 170.43 371.86 170.42 361.57 169.94 351.27 169 340.97 167.65 330.68 165.97 320.38 164.03 310.09 161.94 299.79 159.81 289.5 157.73 279.2 155.82 268.9 154.16 258.61 152.86 248.31 151.96 238.02 151.53 227.72 151.57 217.43 152.09 207.13 153.06 196.84 154.43 186.54 156.13 176.24 158.08 165.95 160.17 155.65 162.31 145.36 164.38 135.06 166.28 124.77 167.91 114.47 173.75 97.13 186.45 85.65 194.46 80.56 202.38 74.86 210.23 68.58 218.03 61.83 225.82 54.7 233.61 47.31 241.42 39.8 249.29 32.28 257.22 24.88 265.25 17.73 273.37 10.91 281.61 4.5 289.98 -1.42 298.48 -6.86 307.11 -11.8 315.88 -16.26 324.78 -20.29 333.8 -23.95 342.94 -27.33 352.18 -30.51 361.5 -33.6 370.89 -36.69 380.32 -39.87 389.77 -43.23 399.23 -46.83 408.65 -50.75 418.03 -55 427.33 -59.6 436.53 -64.56 445.6 -69.85 454.54 -75.44 463.31 -81.27 471.9 -87.28 480.29 -93.4 488.48 -99.58 496.46 -105.74 504.23 -111.81 511.78 -117.75 519.13 -123.52 526.27 -129.08 539.95 -139.44 553.2 -149.18 565.98 -158.18 578.68 -166.97 591.58 -175.83 604.85 -184.94 611.78 -189.69 618.94 -194.55 626.35 -199.53 634.06 -204.6 642.08 -209.74 650.44 -214.92 659.16 -220.1 668.25 -225.27 682.64 -232.89 687.56 -235.41" stroke-dasharray="2 1" transform="rotate(12.555555555555555, 711, 400)" opacity="0.16"></path><path d="M682.03 -209.35Q689.7 -204.6 697.73 -199.96 706.13 -195.4 714.91 -190.94 724.07 -186.55 733.63 -182.22 743.56 -177.9 753.88 -173.57 764.55 -169.2 775.57 -164.74 786.9 -160.18 798.52 -155.47 810.39 -150.59 822.48 -145.55 834.73 -140.32 847.11 -134.93 859.57 -129.39 872.05 -123.73 884.51 -117.99 896.87 -112.22 909.11 -106.46 921.15 -100.77 932.94 -95.22 944.44 -89.84 955.6 -84.68 966.36 -79.79 976.69 -75.17 986.55 -70.86 995.91 -66.84 1004.75 -63.09 1020.47 -56.34 1034.49 -49.98 1045.73 -43.54 1055.4 -36.58 1062.78 -28.09 1069.06 -18.4 1074.06 -6.63 1078.69 6.2 1083.4 20.15 1088.6 34.2 1095.34 47.37 1103.41 59.43 1114.27 68.99 1127.1 76.88 1134.75 79.89 1143.14 82.45 1152.29 84.64 1162.2 86.59 1172.86 88.39 1184.25 90.2 1193.43 99.58 1204.74 108.96 1217.65 118.34 1231.55 127.72 1245.81 137.09 1259.74 146.47 1272.71 155.85 1284.1 165.23 1293.39 174.61 1300.13 183.99 1304.02 193.36 1304.88 202.74 1302.66 212.12 1297.46 221.5 1289.54 230.88 1279.25 240.25 1267.09 249.63 1253.61 259.01 1239.45 268.39 1225.27 277.77 1211.73 287.15 1199.47 296.52 1189.05 305.9 1180.96 315.28 1175.58 324.66 1173.16 334.04 1173.82 343.41 1177.52 352.79 1184.09 362.17 1193.22 371.55 1204.49 380.93 1217.38 390.3 1231.27 399.68 1245.52 409.06 1259.47 418.44 1272.46 427.82 1283.89 437.19 1293.22 446.57 1300.02 455.95 1303.97 465.33 1304.89 474.71 1302.73 484.09 1297.6 493.46 1289.72 502.84 1279.48 512.22 1267.35 521.6 1253.9 530.98 1239.75 540.35 1225.56 549.73 1212 559.11 1199.7 568.49 1189.24 577.87 1181.1 587.24 1175.66 596.62 1173.18 606 1173.77 615.38 1177.41 624.76 1183.93 634.13 1193.01 643.51 1204.24 652.89 1217.1 662.27 1230.98 671.64 1245.23 681.02 1259.19 690.4 1257.37 703.67 1255.12 717.3 1252.39 730.89 1249.11 744.03 1245.23 756.36 1240.71 767.52 1235.52 777.22 1229.64 785.21 1215.38 794.56 1198.98 798.18 1189.56 796.92 1179.48 794.25 1168.78 790.49 1157.5 786.01 1145.68 781.22 1133.38 776.54 1120.66 772.4 1107.58 769.21 1094.2 767.33 1080.6 767.07 1066.84 768.67 1052.99 772.29 1039.12 778 1025.3 785.78 1011.59 795.51 998.07 806.98 984.78 819.91 971.78 833.95 959.14 848.69 946.88 863.69 935.05 878.5 923.68 892.65 912.8 905.72 902.44 917.34 892.59 927.17 883.28 934.99 866.49 942.94 851.22 944.4 838.26 937.03 826.5 926.37 816.32 914.75 806.81 905.41 791.27 909.7 780.01 924.36 775.25 935.4 770.28 948.32 765.09 962.77 759.63 978.33 753.87 994.53 747.81 1010.86 741.41 1026.8 734.68 1041.84 724.05 1045.68 713.25 1047.65 702.33 1047.45 691.32 1044.9 680.26 1039.92 669.19 1032.54 658.15 1022.9 647.18 1011.22 636.3 997.84 625.56 983.15 614.97 967.6 604.56 951.68 594.36 935.88 584.39 920.71 574.64 906.6 565.15 893.98 555.9 883.18 546.91 874.45 538.16 867.95 529.67 863.75 513.47 862.86 497.88 867.5 490.41 872.22 483.08 877.69 468.79 888.64 454.71 897.67 440.74 899.67 426.69 895.83 419.56 890.22 412.35 882.51 405.03 872.86 397.6 861.5 390.04 848.75 382.34 834.96 374.51 820.56 366.54 805.96 358.44 791.63 350.2 777.96 341.84 765.37 333.36 754.17 324.79 744.66 316.12 737.01 307.39 731.35 298.61 727.7 289.79 725.97 280.96 726.04 272.13 727.65 263.33 730.51 254.58 734.28 245.9 738.55 237.3 742.94 228.8 747.02 212.23 752.08 196.06 753.14 185.23 743.68 183.95 726.63 185.63 716.68 187.18 706.72 188.53 696.77 189.63 686.82 190.42 676.86 190.86 666.91 190.93 656.95 190.63 647 189.97 637.04 188.99 627.09 187.73 617.13 186.24 607.18 184.61 597.22 182.89 587.27 181.19 577.31 179.56 567.36 178.1 557.4 176.86 547.45 175.91 537.49 175.29 527.54 175.03 517.58 175.14 507.63 175.62 497.67 176.44 487.72 177.57 477.76 178.95 467.81 180.51 457.85 182.2 447.9 183.92 437.94 185.59 427.99 187.15 418.03 188.51 408.08 189.61 398.12 190.4 388.17 190.85 378.21 190.93 368.26 190.64 358.3 189.99 348.35 189.01 338.39 187.76 328.44 186.28 318.48 184.64 308.53 182.93 298.57 181.22 288.62 179.59 278.66 178.13 268.71 176.89 258.75 175.93 248.8 175.3 238.84 175.03 228.89 175.14 218.93 175.61 208.98 176.42 199.02 177.54 189.06 178.92 179.11 180.48 169.15 182.16 159.2 183.88 149.24 185.56 139.29 187.12 129.33 188.48 119.38 189.59 109.42 197.77 104.19 205.82 98.36 213.74 92 221.56 85.19 229.3 78.05 236.97 70.68 244.6 63.21 252.2 55.77 259.8 48.48 267.41 41.44 275.06 34.75 282.77 28.48 290.55 22.69 298.41 17.41 306.37 12.64 314.45 8.35 322.65 4.53 330.97 1.09 339.42 -2.02 347.99 -4.91 356.7 -7.67 365.52 -10.38 374.45 -13.15 383.47 -16.07 392.59 -19.21 401.76 -22.63 410.99 -26.39 420.25 -30.52 429.52 -35.02 438.77 -39.89 447.98 -45.1 457.12 -50.62 466.19 -56.4 475.14 -62.37 483.97 -68.47 492.64 -74.63 501.15 -80.77 509.47 -86.84 517.59 -92.77 525.51 -98.52 533.21 -104.06 540.68 -109.36 554.87 -119.11 568.42 -128.18 581.04 -136.46 593.22 -144.51 604.92 -152.61 616.52 -160.97 628.28 -169.96 640.36 -179.34 653.32 -189.24 667.01 -199.29 678.19 -206.84 682.03 -209.35" stroke-dasharray="9 8" transform="rotate(16.74074074074074, 711, 400)" opacity="0.19"></path><path d="M685.88 -183.27Q694.98 -178.93 704.4 -174.69 714.14 -170.55 724.19 -166.49 734.52 -162.49 745.13 -158.53 755.98 -154.57 767.06 -150.57 778.32 -146.5 789.74 -142.33 801.28 -138.02 812.89 -133.54 824.54 -128.88 836.19 -124.01 847.78 -118.95 859.28 -113.7 870.64 -108.27 881.81 -102.7 892.76 -97.03 903.43 -91.29 913.79 -85.54 923.81 -79.83 933.45 -74.23 942.68 -68.78 951.47 -63.54 959.8 -58.55 974.78 -49.59 988.3 -41.57 1006.34 -30.59 1017.04 -23.45 1027.62 -12.32 1034.26 -2.88 1039.3 7.09 1044.65 18.35 1051.13 31.38 1058.65 45.06 1068.4 58.92 1079.77 72.26 1086.48 78.4 1093.83 84.1 1101.82 89.3 1110.48 93.95 1119.8 98.04 1129.78 101.57 1140.42 104.56 1151.68 107.07 1163.54 109.18 1175.98 110.96 1187.09 120.18 1199.49 129.39 1212.63 138.61 1225.97 147.82 1238.91 157.04 1250.92 166.25 1261.48 175.47 1270.12 184.69 1276.49 193.9 1280.3 203.12 1281.4 212.33 1279.74 221.55 1275.38 230.76 1268.52 239.98 1259.45 249.19 1248.56 258.41 1236.31 267.62 1223.24 276.84 1209.9 286.05 1196.86 295.27 1184.69 304.48 1173.9 313.7 1164.96 322.91 1158.25 332.13 1154.07 341.34 1152.58 350.56 1153.85 359.78 1157.84 368.99 1164.36 378.21 1173.14 387.42 1183.8 396.64 1195.88 405.85 1208.87 415.07 1222.21 424.28 1235.32 433.5 1247.65 442.71 1258.67 451.93 1267.89 461.14 1274.94 470.36 1279.49 479.57 1281.37 488.79 1280.49 498 1276.88 507.22 1270.7 516.43 1262.22 525.65 1251.8 534.86 1239.89 544.08 1226.99 553.29 1213.67 562.51 1200.49 571.72 1188.01 580.94 1176.78 590.15 1167.28 599.37 1159.91 608.58 1154.98 617.8 1152.72 627.01 1153.21 636.23 1156.44 645.44 1162.27 654.66 1170.44 663.87 1180.61 673.09 1192.34 682.3 1205.13 691.52 1218.43 700.73 1217.11 713.31 1215.6 725.27 1213.82 736.32 1211.71 746.18 1200.21 766.12 1189.29 771.7 1176.94 767.27 1162.71 760.1 1154.51 755.73 1145.71 751.48 1136.33 747.71 1126.39 744.78 1115.93 742.98 1105 742.61 1093.62 743.87 1081.85 746.92 1069.74 751.84 1057.35 758.62 1044.72 767.2 1031.92 777.41 1019 789.06 1006.03 801.85 993.05 815.46 980.14 829.52 967.33 843.64 954.69 857.43 942.26 870.52 930.08 882.53 918.21 893.16 906.67 902.14 895.51 909.27 884.74 914.44 874.39 917.61 864.48 918.81 855.02 918.17 846.01 915.88 837.46 912.22 829.36 907.51 821.7 902.12 814.47 896.47 801.39 886.5 789.37 879.38 778.81 880.2 768.91 887.07 764.23 894.2 759.66 903.37 755.13 914.4 750.62 927.04 746.08 940.97 741.48 955.81 736.77 971.15 731.92 986.56 726.91 1001.57 721.7 1015.77 710.8 1019.31 699.92 1021.17 689.11 1021.11 678.39 1018.95 667.79 1014.6 657.35 1008.09 647.08 999.5 637.02 989.01 627.17 976.89 617.56 963.45 608.19 949.06 599.07 934.14 590.22 919.11 581.62 904.4 573.27 890.42 565.18 877.56 557.33 866.13 549.7 856.42 535.16 843.85 521.15 837.38 507.8 840.04 494.71 846.82 481.81 856.99 468.88 866.84 455.69 872.44 442.24 873.63 435.33 871.15 428.29 866.74 421.12 860.42 413.81 852.28 406.36 842.48 398.77 831.25 391.05 818.86 383.2 805.66 375.22 792.01 367.13 778.26 358.94 764.82 350.66 752.02 342.31 740.21 333.9 729.67 325.46 720.64 316.99 713.27 308.52 707.68 300.07 703.88 283.31 702.14 266.73 704.67 258.6 707.81 250.56 711.54 234.89 719.16 219.59 725.45 209.16 722.45 207.44 708.38 208.61 698.89 209.63 689.41 210.44 679.93 211.02 670.45 211.34 660.97 211.39 651.49 211.17 642.01 210.67 632.53 209.94 623.05 208.99 613.57 207.87 604.09 206.63 594.61 205.32 585.13 203.99 575.65 202.7 566.17 201.52 556.68 200.48 547.2 199.63 537.72 199.02 528.24 198.66 518.76 198.57 509.28 198.76 499.8 199.21 490.32 199.91 480.84 200.83 471.36 201.93 461.88 203.16 452.4 204.47 442.92 205.79 433.43 207.09 423.95 208.29 414.47 209.36 404.99 210.23 395.51 210.88 386.03 211.28 376.55 211.41 367.07 211.26 357.59 210.84 348.11 210.17 338.63 209.28 329.15 208.21 319.66 206.99 310.18 205.69 300.7 204.36 291.22 203.06 281.74 201.84 272.26 200.75 262.78 199.85 253.3 199.17 243.82 198.73 234.34 198.57 224.86 198.68 215.38 199.06 205.89 199.69 196.41 200.55 186.93 201.6 177.45 202.8 167.97 204.09 158.49 205.42 149.01 206.73 139.53 207.97 130.05 209.07 120.57 217.08 114.04 224.95 107.14 232.71 99.95 240.37 92.61 247.93 85.22 255.42 77.91 262.85 70.78 270.23 63.94 277.58 57.47 284.92 51.44 292.28 45.89 299.65 40.86 314.59 32.55 329.75 25.59 345.4 20.23 361.4 15.34 369.61 12.93 377.95 10.41 386.42 7.68 395 4.68 403.69 1.35 412.49 -2.32 421.37 -6.39 430.33 -10.86 439.36 -15.69 448.42 -20.88 457.51 -26.38 466.6 -32.13 475.67 -38.07 484.71 -44.13 493.67 -50.26 502.56 -56.37 511.34 -62.39 519.99 -68.29 528.49 -73.99 536.82 -79.47 544.98 -84.7 552.94 -89.66 568.11 -98.67 582.6 -106.98 595.97 -114.49 608.69 -121.78 620.44 -129.16 631.71 -136.83 642.43 -145.2 652.99 -154.04 663.59 -163.55 674.42 -173.33 682.97 -180.79 685.88 -183.27" stroke-dasharray="12 4" transform="rotate(20.925925925925924, 711, 400)" opacity="0.23"></path><path d="M697.88 -157.21Q718.07 -149.39 738.99 -141.97 760.41 -134.75 782.09 -127.49 803.75 -119.87 825.09 -111.63 845.83 -102.59 865.69 -92.67 884.41 -81.98 901.76 -70.75 917.59 -59.34 931.78 -48.18 944.29 -37.72 955.14 -28.3 964.44 -20.15 972.36 -13.28 984.84 -2.55 995.88 7.69 1001.53 13.99 1007.89 21.76 1015.35 31.25 1024.27 42.45 1034.98 55.11 1047.73 68.68 1062.68 82.48 1079.93 95.71 1099.48 107.65 1121.22 117.73 1144.96 125.62 1170.42 131.35 1194.7 149.36 1219.03 167.38 1239.63 185.39 1253.28 203.41 1257.87 221.42 1252.68 239.44 1238.53 257.45 1217.6 275.47 1193.16 293.48 1169 311.49 1148.89 329.51 1135.95 347.52 1132.18 365.54 1138.19 383.55 1153.02 401.57 1174.39 419.58 1198.95 437.6 1222.91 455.61 1242.52 473.63 1254.74 491.64 1257.67 509.65 1250.86 527.67 1235.36 545.68 1213.59 563.7 1188.92 581.71 1165.2 599.73 1146.11 617.74 1134.62 635.76 1132.52 653.77 1140.13 671.78 1156.28 689.8 1178.44 707.81 1175.67 725.76 1172.65 738.24 1163.25 742.66 1149.37 733.52 1139.11 725.77 1126.72 719.94 1112.15 718.24 1095.46 722.32 1076.81 732.99 1056.41 750.06 1034.54 772.4 1011.53 798.06 987.75 824.55 963.57 849.23 939.39 869.66 915.56 884.03 892.43 891.38 870.29 891.81 849.36 886.45 829.85 877.31 811.84 867.03 795.38 858.42 780.46 854.12 766.96 856.16 754.76 865.62 743.65 882.52 733.41 905.75 723.78 933.23 714.48 962.22 705.26 989.71 685.05 994.72 665.65 992.95 647.19 983.48 629.75 966.52 613.34 943.4 597.96 916.34 583.53 888.11 569.93 861.6 557.03 839.41 544.67 823.46 532.66 814.71 520.81 813.05 508.95 817.33 496.91 825.53 484.56 835.09 471.76 843.28 458.46 847.63 444.59 846.28 430.15 838.22 415.18 823.49 399.72 803.06 383.88 778.78 367.75 752.99 351.46 728.25 335.14 706.89 318.91 690.72 302.88 680.74 287.16 677.02 271.81 678.71 256.88 684.17 236.18 685.48 231.24 661.91 231.83 644.1 231.67 626.28 230.78 608.47 229.3 590.65 227.46 572.84 225.54 555.02 223.85 537.21 222.65 519.39 222.12 501.57 222.35 483.76 223.3 465.94 224.82 448.13 226.68 430.31 228.58 412.5 230.24 394.68 231.39 376.87 231.86 359.05 231.57 341.23 230.56 323.42 229 305.6 227.13 287.79 225.23 269.97 223.61 252.15 222.51 234.34 222.1 216.52 222.46 198.71 223.52 180.89 225.12 163.08 227.01 145.26 228.89 127.44 244.27 112.95 259.21 98.59 273.79 85.18 288.09 73.36 302.2 63.5 316.26 55.65 330.39 49.58 344.71 44.79 359.32 40.61 374.32 36.34 389.78 31.32 405.74 25.06 422.19 17.26 439.12 7.91 456.44 -2.78 474.07 -14.44 491.88 -26.55 509.72 -38.55 527.43 -49.98 544.84 -60.49 561.79 -69.88 578.12 -78.17 593.71 -85.53 608.45 -92.29 622.29 -98.81 635.2 -105.46 647.21 -112.55 658.39 -120.28 668.86 -128.73 678.8 -137.82 693.13 -152.3 697.88 -157.21" stroke-dasharray="11 11" transform="rotate(25.11111111111111, 711, 400)" opacity="0.26"></path><path d="M714.12 -131.15Q734.22 -124.05 754.38 -117.37 774.35 -110.87 793.9 -104.29 812.8 -97.32 830.83 -89.69 847.79 -81.21 863.52 -71.79 877.9 -61.51 890.88 -50.56 902.42 -39.29 912.57 -28.09 921.43 -17.4 929.16 -7.63 935.96 0.94 942.09 8.19 953.64 18.8 966 27.71 973.47 32.48 982.18 38.31 992.39 45.63 1004.32 54.66 1018.13 65.42 1033.91 77.65 1051.69 90.89 1071.42 104.5 1092.95 117.74 1116.1 129.9 1140.58 140.39 1166.07 148.82 1189.11 166.23 1209.85 183.63 1225.37 201.03 1233.46 218.43 1232.97 235.83 1223.97 253.23 1207.74 270.63 1186.58 288.04 1163.49 305.44 1141.75 322.84 1124.44 340.24 1114.01 357.64 1111.95 375.04 1118.55 392.44 1132.87 409.84 1152.88 427.25 1175.74 444.65 1198.21 462.05 1217.1 479.45 1229.74 496.85 1234.32 514.25 1230.2 531.65 1217.97 549.05 1199.36 566.45 1177 583.85 1154.08 601.26 1133.84 618.66 1119.15 636.06 1112.09 653.46 1113.68 670.86 1123.67 688.26 1140.66 705.66 1128.01 711.44 1116.73 699.55 1109.74 694.82 1101.13 694 1090.73 698.4 1078.48 708.67 1064.35 724.64 1048.41 745.35 1030.79 769.21 1011.66 794.13 991.27 817.86 969.87 838.28 947.78 853.68 925.31 863 902.76 866.03 880.44 863.37 858.64 856.45 837.61 847.28 817.55 838.22 798.62 831.66 780.95 829.66 764.58 833.72 749.51 844.51 735.72 861.79 723.08 884.44 711.48 910.59 700.75 937.85 690.67 963.64 673.53 968.27 657.43 966.91 642.37 958.7 628.3 943.72 615.13 922.98 602.75 898.22 591.02 871.72 579.77 845.95 568.83 823.25 558.03 805.5 547.2 793.9 536.18 788.8 524.84 789.64 513.06 795.12 500.76 803.28 487.91 811.87 474.46 818.61 460.45 821.49 445.92 819.06 430.93 810.62 415.57 796.29 399.95 776.96 384.18 754.2 368.37 730.02 352.65 706.57 337.11 685.87 321.83 669.53 306.88 658.57 292.29 653.23 278.09 653.01 257.96 651.41 252.22 629.49 252.3 612.9 251.92 596.31 251.12 579.71 250.01 563.12 248.77 546.52 247.55 529.93 246.53 513.33 245.87 496.74 245.64 480.14 245.89 463.54 246.58 446.95 247.61 430.35 248.83 413.76 250.08 397.16 251.17 380.57 251.95 363.97 252.31 347.38 252.2 330.78 251.63 314.19 250.69 297.59 249.5 281 248.24 264.4 247.09 247.81 246.21 231.21 245.72 214.62 245.69 198.02 246.13 181.43 246.98 164.83 248.11 148.23 249.36 131.64 264.12 117.83 278.48 105.22 292.49 94.33 306.2 85.42 319.68 78.47 333.03 73.2 346.35 69.1 359.75 65.55 373.34 61.86 387.23 57.43 401.5 51.76 416.21 44.57 431.42 35.79 447.14 25.6 463.35 14.33 480.01 2.45 497.06 -9.5 514.39 -21.05 531.87 -31.78 549.36 -41.42 566.71 -49.89 583.77 -57.27 600.37 -63.78 616.37 -69.75 631.64 -75.57 646.09 -81.6 659.63 -88.14 672.25 -95.38 683.93 -103.4 694.74 -112.16 709.44 -126.31 714.12 -131.15" stroke-dasharray="5 3" transform="rotate(29.296296296296294, 711, 400)" opacity="0.30"></path><path d="M729.35 -105.07Q747.56 -98.67 765.26 -92.68 782.25 -86.88 798.4 -80.97 813.54 -74.67 827.58 -67.69 840.45 -59.84 852.12 -51.01 862.59 -41.25 871.92 -30.71 880.22 -19.68 887.62 -8.53 894.32 2.3 900.52 12.42 906.48 21.49 912.45 29.28 918.71 35.72 925.53 40.92 933.18 45.16 941.9 48.87 951.91 52.55 963.39 56.77 976.48 62.03 991.26 68.74 1007.76 77.13 1025.94 87.23 1045.71 98.86 1066.93 111.61 1089.39 124.92 1112.83 138.13 1136.96 150.57 1161.44 161.62 1181.55 178.17 1197.73 194.72 1207.89 211.27 1210.71 227.83 1205.85 244.38 1193.92 260.93 1176.45 277.48 1155.71 294.04 1134.36 310.59 1115.15 327.14 1100.55 343.7 1092.46 360.25 1091.9 376.8 1098.95 393.35 1112.7 409.91 1131.39 426.46 1152.59 443.01 1173.6 459.56 1191.69 476.12 1204.53 492.67 1210.48 509.22 1208.77 525.77 1199.61 542.33 1184.19 558.88 1164.5 575.43 1143.06 591.98 1122.64 608.53 1105.88 625.09 1094.92 641.64 1091.19 658.19 1083.39 674.42 1070.39 675.25 1063.2 685.62 1054.6 700.99 1044.47 720.5 1032.74 742.8 1019.41 766.14 1004.52 788.62 988.18 808.43 970.52 824.04 951.74 834.44 932.05 839.24 911.69 838.74 890.91 833.9 869.96 826.24 849.1 817.66 828.57 810.2 808.58 805.78 789.31 805.98 770.93 811.84 753.54 823.69 737.22 841.14 722.01 863.09 707.88 887.87 694.79 913.42 682.67 937.57 669.22 941.82 656.69 940.81 644.98 933.75 633.97 920.63 623.5 902.16 613.42 879.72 603.57 855.13 593.78 830.46 583.91 807.76 573.79 788.8 563.33 774.88 552.41 766.66 540.95 764.08 528.93 766.4 516.3 772.29 503.1 780 489.34 787.59 475.09 793.17 460.42 795.12 445.43 792.27 430.22 784.09 414.9 770.7 399.56 752.84 384.31 731.8 369.24 709.24 354.43 686.98 339.91 666.74 325.74 650.01 311.91 637.81 298.43 630.56 285.25 628.1 272.33 629.68 272.67 614.25 272.79 598.81 272.67 583.38 272.34 567.94 271.84 552.51 271.22 537.07 270.58 521.63 269.99 506.2 269.52 490.76 269.24 475.33 269.19 459.89 269.37 444.45 269.76 429.02 270.3 413.58 270.94 398.14 271.58 382.71 272.14 367.27 272.55 351.84 272.76 336.4 272.75 320.96 272.5 305.53 272.06 290.09 271.49 274.66 270.84 259.22 270.22 243.78 269.69 228.35 269.33 212.91 269.19 197.47 269.27 182.04 269.58 166.6 270.06 151.16 270.67 135.73 284.74 124.22 298.46 114.54 311.85 106.82 324.92 100.95 337.73 96.59 350.35 93.23 362.86 90.27 375.35 87.07 387.92 83.08 400.67 77.84 413.7 71.09 427.08 62.77 440.89 53.01 455.18 42.11 469.99 30.5 485.31 18.69 501.13 7.15 517.4 -3.67 534.06 -13.49 550.99 -22.14 568.1 -29.6 585.24 -36.02 602.27 -41.67 619.05 -46.9 635.43 -52.07 651.26 -57.55 666.42 -63.6 680.8 -70.42 694.32 -78.07 706.92 -86.51 723.97 -100.33 729.35 -105.07" stroke-dasharray="4 8" transform="rotate(33.48148148148148, 711, 400)" opacity="0.33"></path><path d="M738.62 -79.01Q753.68 -73.26 767.92 -67.93 781.24 -62.78 793.59 -57.53 804.93 -51.89 815.27 -45.59 824.65 -38.42 833.13 -30.26 840.83 -21.12 847.86 -11.11 854.41 -0.46 860.65 10.48 866.8 21.35 873.06 31.75 879.66 41.29 886.82 49.7 894.75 56.8 903.64 62.57 913.66 67.15 924.96 70.8 937.64 73.94 951.76 77.06 967.34 80.67 984.36 85.24 1002.76 91.18 1022.4 98.72 1043.13 107.95 1064.75 118.74 1087.03 130.8 1109.7 143.64 1132.48 156.7 1155.07 169.35 1171.07 184.86 1182.16 200.37 1187.07 215.88 1185.21 231.38 1176.82 246.89 1162.86 262.4 1144.95 277.91 1125.19 293.41 1105.87 308.92 1089.24 324.43 1077.23 339.93 1071.25 355.44 1071.99 370.95 1079.36 386.46 1092.5 401.96 1109.89 417.47 1129.5 432.98 1149.05 448.48 1166.27 463.99 1179.15 479.5 1186.19 495.01 1186.57 510.51 1180.25 526.02 1167.97 541.53 1151.15 557.03 1131.75 572.54 1112.03 588.05 1094.28 603.55 1080.57 619.06 1072.5 634.57 1056.43 649.19 1045.14 646.8 1041.04 653.08 1036.54 663.95 1031.38 679.09 1025.34 697.74 1018.26 718.7 1009.98 740.5 1000.41 761.55 989.49 780.33 977.2 795.54 963.58 806.26 948.69 812.07 932.65 813.08 915.58 809.95 897.66 803.83 879.07 796.19 860 788.72 840.67 783.1 821.28 780.84 802.03 783.08 783.1 790.49 764.66 803.16 746.86 820.57 729.8 841.7 713.59 865.08 698.26 888.95 683.84 911.51 673.71 915.39 664.13 914.68 654.95 908.66 646.03 897.26 637.21 880.96 628.34 860.8 619.3 838.25 609.95 814.97 600.19 792.74 589.93 773.15 579.13 757.5 567.73 746.63 555.73 740.84 543.14 739.85 529.99 742.87 516.34 748.68 502.26 755.75 487.83 762.46 473.14 767.23 458.29 768.73 443.37 766.01 428.49 758.62 413.73 746.59 399.15 730.52 384.84 711.39 370.82 690.55 357.13 669.49 343.77 649.7 330.73 632.53 318 618.98 305.51 609.67 293.22 604.71 293.24 590.26 293.24 575.82 293.2 561.38 293.14 546.93 293.06 532.49 292.97 518.05 292.89 503.6 292.81 489.16 292.76 474.72 292.73 460.27 292.73 445.83 292.76 431.38 292.82 416.94 292.9 402.5 292.98 388.05 293.07 373.61 293.15 359.16 293.21 344.72 293.24 330.28 293.24 315.83 293.22 301.39 293.16 286.95 293.09 272.5 293 258.06 292.91 243.61 292.83 229.17 292.77 214.73 292.73 200.28 292.73 185.84 292.75 171.39 292.8 156.95 292.87 142.5 306.24 134.31 319.3 127.99 332.05 123.33 344.49 119.94 356.65 117.31 368.57 114.88 380.3 112.05 391.93 108.34 403.53 103.35 415.18 96.87 426.98 88.84 439.03 79.39 451.39 68.81 464.14 57.5 477.35 45.89 491.06 34.48 505.29 23.66 520.05 13.78 535.31 5.04 551.04 -2.48 567.17 -8.89 583.62 -14.36 600.27 -19.19 617.02 -23.73 633.74 -28.33 650.28 -33.33 666.51 -38.97 682.29 -45.42 697.5 -52.74 712.01 -60.89 732.18 -74.36 738.62 -79.01" stroke-dasharray="7 12" transform="rotate(37.666666666666664, 711, 400)" opacity="0.37"></path><path d="M738.94 -52.95Q750.48 -47.81 761.2 -43.09 771.09 -38.56 780.18 -33.95 788.53 -28.97 796.22 -23.36 803.36 -16.91 810.07 -9.49 816.5 -1.07 822.8 8.28 829.16 18.4 835.74 29 842.71 39.75 850.27 50.27 858.56 60.2 867.73 69.21 877.91 77.05 889.2 83.6 901.68 88.85 915.38 92.94 930.33 96.12 946.48 98.77 963.78 101.34 982.13 104.3 1001.4 108.09 1021.43 113.1 1042.03 119.6 1062.99 127.72 1084.08 137.43 1105.07 148.52 1125.71 160.63 1145.77 173.3 1156.95 187.66 1162.9 202.02 1163.01 216.38 1157.26 230.74 1146.26 245.1 1131.15 259.46 1113.51 273.82 1095.19 288.18 1078.11 302.54 1064.04 316.9 1054.46 331.26 1050.38 345.62 1052.21 359.98 1059.77 374.34 1072.26 388.7 1088.39 403.06 1106.46 417.42 1124.58 431.78 1140.87 446.14 1153.61 460.5 1161.48 474.86 1163.65 489.22 1159.9 503.58 1150.61 517.94 1136.76 532.31 1119.8 546.67 1101.5 561.03 1083.77 575.39 1068.47 589.75 1057.2 604.11 1046.29 623.15 1033.33 623.41 1020.75 622.7 1010.48 632.27 1006.15 643.87 1001.93 659.05 997.59 677.05 992.92 696.81 987.71 717.11 981.81 736.61 975.04 754.06 967.3 768.38 958.5 778.82 948.57 784.97 937.48 786.88 925.26 785 911.94 780.19 897.6 773.62 882.32 766.64 866.23 760.66 849.46 757.03 832.17 756.86 814.51 760.94 796.66 769.63 778.77 782.85 761 800.05 743.5 820.26 726.39 842.22 709.8 864.45 693.82 885.44 677.92 886.2 661.89 873.6 653.49 859.35 644.69 841.44 635.42 820.99 625.61 799.36 615.23 778.01 604.24 758.33 592.65 741.56 580.48 728.61 567.77 720 554.57 715.81 540.94 715.69 526.97 718.87 512.73 724.3 498.33 730.68 483.84 736.65 469.36 740.93 454.97 742.39 440.74 740.24 426.73 734.02 412.99 723.72 399.55 709.7 386.44 692.71 373.65 673.77 361.18 654.08 348.99 634.91 337.06 617.43 325.32 602.65 313.72 591.28 313.73 577.62 313.86 563.96 314.12 550.29 314.46 536.63 314.86 522.97 315.27 509.31 315.66 495.64 315.97 481.98 316.18 468.32 316.26 454.65 316.21 440.99 316.04 427.33 315.75 413.67 315.38 400 314.97 386.34 314.57 372.68 314.2 359.02 313.92 345.35 313.75 331.69 313.71 318.03 313.8 304.37 314.02 290.7 314.33 277.04 314.72 263.38 315.13 249.72 315.53 236.05 315.87 222.39 316.12 208.73 316.25 195.07 316.25 181.41 316.11 167.74 315.86 154.08 328.55 149.3 340.99 145.9 353.13 143.46 364.97 141.48 376.53 139.44 387.81 136.81 398.86 133.19 409.72 128.26 420.46 121.84 431.13 113.94 441.83 104.69 452.62 94.35 463.6 83.3 474.85 71.96 486.43 60.75 498.41 50.08 510.86 40.27 523.8 31.55 537.27 24.01 551.27 17.64 565.79 12.3 580.79 7.74 596.23 3.66 612.04 -0.26 628.12 -4.37 644.38 -8.96 660.71 -14.26 676.98 -20.4 693.06 -27.43 708.83 -35.3 731.55 -48.41 738.94 -52.95" stroke-dasharray="7 12" transform="rotate(41.85185185185185, 711, 400)" opacity="0.40"></path><path d="M730.2 -26.88Q738.79 -22.32 746.78 -18.17 761.14 -10.05 774.51 -0.97 780.92 4.73 787.36 11.36 794 18.99 800.95 27.59 808.37 37.04 816.37 47.11 825.08 57.55 834.61 68.01 845.04 78.15 856.44 87.64 868.85 96.19 882.3 103.6 896.78 109.75 912.25 114.63 928.66 118.38 945.93 121.22 963.93 123.48 982.54 125.54 1001.61 127.84 1020.97 130.79 1040.43 134.76 1059.81 140.06 1078.9 146.86 1097.53 155.21 1115.5 165.02 1132.63 176.05 1138.82 189.28 1139.98 202.51 1136.01 215.74 1127.28 228.96 1114.6 242.19 1099.16 255.42 1082.39 268.65 1065.87 281.88 1051.14 295.11 1039.56 308.34 1032.23 321.57 1029.82 334.8 1032.56 348.03 1040.19 361.25 1052.01 374.48 1066.9 387.71 1083.49 400.94 1100.21 414.17 1115.52 427.4 1127.97 440.63 1136.42 453.86 1140.06 467.09 1138.57 480.32 1132.07 493.55 1121.18 506.77 1106.91 520 1090.6 533.23 1073.77 546.46 1057.98 559.69 1044.71 572.92 1035.21 586.15 1030.35 599.38 1018.95 596.65 1008.83 596.11 999.9 598.45 992.07 604.11 985.21 613.24 979.17 625.69 973.8 640.98 968.91 658.41 964.34 677.03 959.88 695.79 955.38 713.62 950.65 729.5 945.54 742.59 939.89 752.27 926.07 758.8 909.73 755.58 899.93 750 889.18 743.71 877.49 737.89 864.89 733.67 851.44 732.05 837.23 733.83 822.35 739.5 806.91 749.2 791.02 762.73 774.81 779.53 758.42 798.73 741.97 819.26 725.58 839.88 709.37 859.36 694.2 860.31 677.85 849.67 668.8 837.34 659.19 821.59 648.98 803.29 638.17 783.49 626.78 763.36 614.84 744.1 602.39 726.81 589.49 712.39 576.19 701.49 562.59 694.42 548.75 691.17 534.76 691.36 520.7 694.34 506.66 699.19 492.69 704.88 478.88 710.27 465.28 714.3 451.93 716.03 438.88 714.75 426.14 710.01 413.72 701.68 401.62 689.97 389.83 675.36 378.32 658.59 367.04 640.59 355.97 622.37 345.04 604.96 334.19 589.28 334.44 576.22 334.93 563.15 335.6 550.08 336.41 537.02 337.27 523.95 338.1 510.88 338.83 497.82 339.39 484.75 339.72 471.68 339.8 458.62 339.61 445.55 339.18 432.48 338.54 419.42 337.76 406.35 336.91 393.28 336.06 380.22 335.3 367.15 334.7 354.08 334.31 341.02 334.17 327.95 334.29 314.88 334.66 301.82 335.26 288.75 336.01 275.68 336.85 262.62 337.71 249.55 338.5 236.49 339.15 223.42 339.59 210.35 339.79 197.29 339.73 184.22 339.42 171.15 351.5 168.95 363.35 167.32 374.95 165.81 386.27 163.95 397.3 161.31 408.05 157.55 418.53 152.46 428.76 145.92 438.79 137.98 448.67 128.8 458.44 118.63 468.18 107.83 477.96 96.77 487.86 85.85 497.94 75.44 508.28 65.84 518.95 57.28 530.01 49.85 541.51 43.59 553.5 38.38 566.01 34.04 579.04 30.32 592.6 26.91 606.67 23.49 621.21 19.78 636.17 15.51 651.49 10.5 667.08 4.62 682.85 -2.14 698.71 -9.74 714.53 -18.05 730.2 -26.88 730.2 -26.88 730.2 -26.88" stroke-dasharray="11 6" transform="rotate(46.03703703703703, 711, 400)" opacity="0.44"></path><path d="M715.23 -0.81Q728.61 6.71 741.6 13.65 754.99 21.96 769.26 32.38 777.17 39.15 785.67 46.9 794.84 55.54 804.76 64.93 815.48 74.84 827.03 85.02 839.44 95.14 852.7 104.91 866.8 114.02 881.7 122.23 897.34 129.34 913.64 135.24 930.5 139.94 947.82 143.52 965.46 146.17 983.29 148.15 1001.18 149.8 1018.95 151.49 1036.47 153.61 1053.57 156.5 1070.12 160.48 1085.97 165.78 1101 172.52 1115.09 180.72 1116.57 192.93 1113.62 205.15 1106.47 217.36 1095.73 229.58 1082.28 241.79 1067.24 254.01 1051.84 266.22 1037.36 278.44 1025.01 290.65 1015.8 302.87 1010.5 315.08 1009.54 327.3 1013 339.51 1020.6 351.73 1031.71 363.94 1045.41 376.16 1060.56 388.37 1075.92 400.59 1090.2 412.8 1102.24 425.02 1111.02 437.24 1115.84 449.45 1116.28 461.67 1112.31 473.88 1104.25 486.1 1092.79 498.31 1078.86 510.53 1063.61 522.74 1048.32 534.96 1034.24 547.17 1022.54 559.39 1014.19 571.6 1001.23 573.5 989.4 578.2 978.67 585.89 969 596.5 960.34 609.73 952.61 625.07 945.71 641.85 939.52 659.24 933.93 676.38 928.79 692.4 923.96 706.51 919.31 718.07 901.83 730.29 887.45 725.45 880.42 719.9 872.67 714.51 864.17 710.21 854.89 707.87 844.81 708.2 833.96 711.73 822.36 718.72 810.05 729.16 797.09 742.78 783.56 759.03 769.54 777.15 755.11 796.24 740.38 815.29 725.43 833.3 717.42 836.16 708.88 836.07 699.77 832.57 690.07 825.49 679.8 814.92 668.96 801.25 657.58 785.08 645.7 767.22 633.38 748.6 620.66 730.19 607.62 712.95 594.32 697.7 580.85 685.13 567.27 675.69 553.66 669.58 540.09 666.73 526.63 666.83 513.33 669.33 500.24 673.5 487.41 678.49 474.86 683.39 462.63 687.33 450.72 689.5 439.13 689.26 427.85 686.16 416.86 679.99 406.13 670.79 395.63 658.81 385.32 644.54 375.14 628.64 365.06 611.89 355.02 595.11 355.7 582.54 356.65 569.96 357.79 557.38 359.04 544.8 360.27 532.23 361.41 519.65 362.34 507.07 362.99 494.5 363.32 481.92 363.28 469.34 362.89 456.76 362.17 444.19 361.2 431.61 360.04 419.03 358.79 406.46 357.56 393.88 356.44 381.3 355.54 368.73 354.92 356.15 354.64 343.57 354.72 331 355.15 318.42 355.9 305.84 356.9 293.27 358.08 280.69 359.33 268.11 360.55 255.54 361.65 242.96 362.52 230.38 363.1 217.81 363.34 205.23 363.22 192.65 374.74 191.57 386.08 190.23 397.2 188.26 408.07 185.33 418.68 181.19 429.01 175.72 439.05 168.88 448.82 160.76 458.34 151.54 467.63 141.49 476.72 130.93 485.67 120.2 494.53 109.65 503.35 99.62 512.2 90.37 521.14 82.11 530.26 74.93 539.6 68.88 549.24 63.88 559.23 59.77 569.63 56.35 580.49 53.36 591.83 50.5 603.67 47.5 616.04 44.1 628.93 40.08 642.31 35.28 656.17 29.63 670.45 23.1 685.11 15.76 707.64 3.45 715.23 -0.81" stroke-dasharray="4 4" transform="rotate(50.22222222222222, 711, 400)" opacity="0.47"></path><path d="M698.89 25.23Q712.09 31.76 725.91 37.69 733.39 40.82 741.32 44.4 749.76 48.61 758.78 53.61 768.42 59.5 778.72 66.32 789.71 74.05 801.4 82.59 813.79 91.79 826.87 101.44 840.6 111.29 854.94 121.06 869.83 130.49 885.2 139.29 900.97 147.26 917.04 154.21 933.31 160.05 949.67 164.73 965.99 168.32 982.18 170.95 998.09 172.83 1013.63 174.22 1028.66 175.44 1043.1 176.82 1056.83 178.69 1069.78 181.36 1086.17 193.24 1084.3 212.78 1074.98 224.16 1063.19 235.53 1049.78 246.9 1035.73 258.27 1022.06 269.64 1009.78 281.01 999.76 292.39 992.75 303.76 989.25 315.13 989.51 326.5 993.53 337.87 1001 349.25 1011.38 360.62 1023.91 371.99 1037.69 383.36 1051.71 394.73 1064.95 406.11 1076.45 417.48 1085.37 428.85 1091.05 440.22 1093.09 451.59 1091.34 462.97 1085.92 474.34 1077.24 485.71 1065.91 497.08 1052.77 508.45 1038.78 519.83 1024.94 531.2 1012.27 542.57 1001.7 553.94 987.73 561.02 974.66 570.6 962.51 582.46 951.28 596.22 940.98 611.37 931.57 627.27 923.01 643.24 915.24 658.57 908.2 672.61 901.79 684.76 890.67 700.33 880.55 707.78 871.01 703.59 861.16 695.27 849.85 687.11 837.17 683.35 829.89 685.49 821.99 690.53 813.47 698.55 804.3 709.46 794.49 722.94 784.06 738.5 773.03 755.48 761.45 773.14 749.36 790.66 736.82 807.23 727.37 809.77 717.37 809.81 706.83 806.97 695.79 801.06 684.29 792.11 672.38 780.38 660.1 766.3 647.52 750.45 634.71 733.54 621.73 716.35 608.64 699.66 595.52 684.2 582.42 670.62 569.41 659.42 556.54 650.94 543.86 645.3 531.42 642.46 519.24 642.17 507.35 643.99 495.77 647.36 484.51 651.62 473.56 656.04 462.93 659.91 452.59 662.55 442.51 663.39 432.68 661.97 423.05 658.02 413.58 651.44 404.24 642.3 394.98 630.86 385.76 617.53 376.54 602.86 377.73 590.77 379.17 578.68 380.73 566.59 382.32 554.5 383.81 542.41 385.09 530.32 386.07 518.23 386.69 506.15 386.88 494.06 386.65 481.97 386.01 469.88 385 457.79 383.7 445.7 382.2 433.61 380.61 421.52 379.05 409.44 377.63 397.35 376.46 385.26 375.61 373.17 375.16 361.08 375.13 348.99 375.52 336.9 376.32 324.82 377.45 312.73 378.84 300.64 380.39 288.55 381.98 276.46 383.5 264.37 384.83 252.29 385.89 240.2 386.59 228.11 386.88 216.02 397.89 214.46 408.77 212.03 419.48 208.5 429.98 203.74 440.24 197.7 450.25 190.42 459.99 182.03 469.45 172.73 478.64 162.78 487.56 152.48 496.23 142.14 504.67 132.07 512.92 122.54 521.01 113.79 529 105.98 536.93 99.21 544.86 93.5 552.84 88.8 560.95 84.98 569.23 81.87 577.76 79.24 586.58 76.84 595.74 74.41 605.3 71.72 615.3 68.54 625.77 64.69 636.72 60.07 648.18 54.61 660.14 48.31 672.59 41.23 692.21 29.36 698.89 25.23" stroke-dasharray="7 1" transform="rotate(54.407407407407405, 711, 400)" opacity="0.51"></path><path d="M686.47 51.3Q701.55 56.91 717.85 61.89 726.83 64.48 736.33 67.44 746.38 70.94 756.99 75.13 768.17 80.12 779.91 85.98 792.2 92.71 805 100.28 818.29 108.59 832.01 117.48 846.1 126.78 860.51 136.25 875.16 145.66 889.97 154.77 904.86 163.34 919.73 171.17 934.5 178.1 949.08 184.01 963.38 188.85 977.3 192.65 990.77 195.46 1003.7 197.45 1016.03 198.81 1027.68 199.78 1038.62 200.64 1048.78 201.67 1059.59 209.62 1052.66 226.78 1042.17 237.47 1030.2 248.16 1017.53 258.86 1004.94 269.55 993.25 280.25 983.19 290.94 975.41 301.63 970.39 312.33 968.45 323.02 969.73 333.72 974.12 344.41 981.37 355.11 991.01 365.8 1002.42 376.5 1014.88 387.19 1027.61 397.88 1039.78 408.58 1050.64 419.27 1059.49 429.97 1065.77 440.66 1069.08 451.36 1069.22 462.05 1066.16 472.75 1060.11 483.44 1051.45 494.14 1040.74 504.83 1028.64 515.52 1015.93 526.22 1003.41 536.91 991.89 547.61 977.53 558.7 963.81 571.37 950.79 585.21 938.48 599.74 926.93 614.4 916.14 628.65 906.11 641.95 896.83 653.81 888.26 663.82 880.37 671.7 866.69 679.38 854.53 680.51 844.13 673.93 834.3 665.67 816.76 662.16 803.12 670.15 796.89 678.91 790.23 690.03 783.1 703.18 775.47 717.92 767.33 733.72 758.67 749.95 749.5 765.98 739.83 781.16 728.94 783.4 717.65 783.53 706 781.25 694.05 776.38 681.85 768.91 669.47 758.99 656.96 746.9 644.37 733.07 631.78 718.02 619.22 702.34 606.76 686.63 594.45 671.53 582.32 657.59 570.41 645.31 558.76 635.07 547.39 627.14 536.31 621.62 525.54 618.49 515.09 617.56 504.94 618.54 495.09 620.99 485.53 624.43 476.22 628.29 467.16 632 449.67 635.97 432.59 635.11 424.19 631.13 415.82 624.91 407.43 616.54 399 606.2 400.69 594.69 402.53 583.18 404.4 571.67 406.18 560.17 407.76 548.66 409.03 537.15 409.92 525.64 410.37 514.13 410.35 502.62 409.87 491.11 408.94 479.61 407.64 468.1 406.04 456.59 404.25 445.08 402.38 433.57 400.55 422.06 398.87 410.56 397.45 399.05 396.38 387.54 395.74 376.03 395.55 364.52 395.83 353.01 396.57 341.51 397.72 330 399.2 318.49 400.92 306.98 402.77 295.47 404.63 283.96 406.39 272.46 407.94 260.95 409.17 249.44 410.01 237.93 420.54 234.67 430.99 230.27 441.31 224.68 451.48 217.94 461.45 210.15 471.22 201.47 480.74 192.11 490.01 182.32 499.02 172.37 507.76 162.53 516.22 153.05 524.42 144.17 532.37 136.06 540.09 128.87 554.87 117.9 569.24 109.7 583.4 104.79 597.71 100.71 612.84 95.82 628.76 89.34 637.3 84.85 646.23 79.56 655.59 73.48 665.41 66.66 681.08 55.26 686.47 51.3" stroke-dasharray="10 4" transform="rotate(58.59259259259259, 711, 400)" opacity="0.54"></path><path d="M682 77.37Q690.56 79.98 699.55 82.24 708.98 84.28 718.85 86.26 729.18 88.35 739.95 90.73 751.16 93.56 762.79 96.97 774.8 101.08 787.17 105.96 799.86 111.67 812.82 118.18 826 125.45 839.34 133.39 852.79 141.87 866.27 150.73 879.72 159.77 893.07 168.8 906.26 177.6 919.21 185.98 931.86 193.75 944.14 200.75 956 206.87 967.38 212.03 978.22 216.21 988.5 219.43 998.16 221.78 1007.19 223.39 1025.96 230.71 1019.46 246.52 1008.72 256.64 997.34 266.77 985.94 276.89 975.14 287.02 965.54 297.15 957.67 307.27 951.94 317.4 948.69 327.52 948.08 337.65 950.14 347.78 954.78 357.9 961.72 368.03 970.6 378.15 980.92 388.28 992.13 398.41 1003.6 408.53 1014.7 418.66 1024.84 428.79 1033.46 438.91 1040.07 449.04 1044.33 459.16 1046 469.29 1044.98 479.42 1041.33 489.54 1035.26 499.67 1027.09 509.8 1017.27 519.92 1006.34 530.05 994.9 540.17 983.58 550.3 969.46 563.11 955.72 576.4 942.44 589.75 929.66 602.72 917.42 614.89 905.75 625.89 894.69 635.39 884.23 643.15 874.39 649.01 865.17 652.9 848.78 654.29 834.03 651.15 821.61 644.06 810.29 637.22 792.94 639.29 780.8 650.53 775.81 659.75 770.64 670.82 765.24 683.46 759.57 697.29 753.59 711.86 747.27 726.69 740.58 741.27 733.5 755.1 721.83 757.04 710 757.25 698.05 755.45 686.03 751.5 674 745.35 662 737.09 650.09 726.89 638.3 715.03 626.67 701.9 615.23 687.92 604.03 673.55 593.08 659.28 582.4 645.59 572.02 632.91 561.92 621.63 552.13 612.04 542.64 604.36 533.44 598.69 515.98 594.17 499.24 594.7 483.44 600.41 468.03 606.75 452.94 609.92 437.85 609.03 427.42 597.61 426.7 578.81 428.7 568.03 430.5 557.24 431.99 546.46 433.11 535.68 433.77 524.89 433.96 514.11 433.66 503.33 432.88 492.55 431.66 481.76 430.09 470.98 428.23 460.2 426.19 449.42 424.09 438.63 422.04 427.85 420.15 417.07 418.52 406.29 417.25 395.5 416.4 384.72 416.02 373.94 416.14 363.16 416.73 352.37 417.78 341.59 419.22 330.81 420.98 320.03 422.96 309.25 425.05 298.46 427.13 287.68 429.1 276.9 430.84 266.12 432.26 255.33 442.31 249.87 452.32 243.36 462.25 235.91 472.08 227.65 481.77 218.76 491.3 209.47 500.65 199.98 509.79 190.53 518.7 181.34 527.37 172.63 535.79 164.55 543.94 157.25 551.83 150.83 559.45 145.32 573.85 137.34 587.59 131.61 600.5 128.12 613.1 124.88 625.62 120.27 638.35 113.96 644.96 109.58 651.78 104.44 658.86 98.58 666.23 92.04 677.96 81.15 682 77.37" stroke-dasharray="10 8" transform="rotate(62.77777777777778, 711, 400)" opacity="0.58"></path><path d="M686.93 103.43Q696.62 105.65 706.66 107.53 717.04 109.2 727.73 110.78 738.73 112.44 749.99 114.3 761.49 116.51 773.2 119.19 785.08 122.46 797.09 126.4 809.17 131.06 821.3 136.46 833.4 142.61 845.45 149.44 857.38 156.9 869.14 164.86 880.69 173.19 891.98 181.74 902.96 190.34 913.58 198.82 923.81 207.01 933.61 214.74 942.95 221.86 951.81 228.26 967.71 238.11 982.04 245.35 994.48 254.32 985.52 269.53 975.33 279.11 965.12 288.7 955.37 298.28 946.54 307.86 939.04 317.45 933.22 327.03 929.35 336.61 927.61 346.2 928.08 355.78 930.74 365.36 935.47 374.95 942.05 384.53 950.16 394.12 959.43 403.7 969.43 413.28 979.69 422.86 989.73 432.45 999.08 442.03 1007.31 451.61 1014.03 461.2 1018.93 470.78 1021.77 480.36 1022.43 489.95 1020.87 499.53 1017.18 509.11 1011.51 518.7 1004.14 528.28 995.41 537.86 985.72 547.45 975.53 557.03 962.21 569.02 949.06 580.56 936.14 591.35 923.51 601.11 911.21 609.59 899.27 616.62 887.75 622.08 876.66 625.92 866.04 628.15 855.89 628.88 846.23 628.27 837.06 626.54 820.42 620.8 805.18 614.57 792.05 611 780 610.89 769.35 618.62 759.28 631.57 754.47 640.96 749.72 651.77 744.97 663.75 740.19 676.57 735.33 689.9 730.34 703.34 725.2 716.51 719.87 729.03 708.47 730.71 697.12 730.96 685.87 729.57 674.75 726.41 663.79 721.44 653.01 714.67 642.46 706.22 632.15 696.26 622.09 685.05 612.3 672.88 602.79 660.1 593.56 647.06 584.62 634.14 575.96 621.7 567.57 610.07 559.45 599.56 551.57 590.4 543.92 582.77 529.31 573.31 515.18 568.71 501.59 570.67 488.15 575.09 474.71 580.37 461.11 584.18 451.76 579.08 451.51 563.74 453.44 553.83 455.08 543.92 456.33 534.01 457.15 524.11 457.49 514.2 457.35 504.29 456.72 494.38 455.63 484.47 454.14 474.56 452.32 464.65 450.25 454.74 448.03 444.83 445.75 434.92 443.54 425.01 441.48 415.1 439.69 405.19 438.23 395.28 437.18 385.37 436.59 375.46 436.49 365.55 436.87 355.64 437.73 345.73 439.02 335.82 440.68 325.91 442.64 316 444.8 306.09 447.06 296.18 449.32 286.27 451.47 276.36 453.41 266.45 462.92 259.11 472.43 251.09 481.92 242.57 491.36 233.71 500.72 224.7 509.98 215.74 519.12 207.02 528.11 198.7 536.92 190.93 545.55 183.84 553.97 177.52 562.16 172.01 577.7 163.85 592.5 157.91 606.06 154.61 618.93 152.04 630.81 149.1 642.24 145.06 653.22 138.17 664.13 129.25 681.13 110.27 686.93 103.43" stroke-dasharray="3 4" transform="rotate(66.96296296296296, 711, 400)" opacity="0.61"></path><path d="M699.66 129.5Q720.06 132.91 741.1 135.49 762.57 138.15 784.2 141.83 805.72 147.37 826.84 155.33 847.26 165.96 866.73 179.06 884.98 194.09 901.83 210.16 917.12 226.18 930.76 241.04 942.73 253.76 953.08 263.64 961.95 270.39 969.51 274.21 951.65 292.18 934.01 310.15 919.31 328.12 909.85 346.09 907.1 364.06 911.49 382.03 922.33 399.99 937.94 417.96 955.89 435.93 973.39 453.9 987.71 471.87 996.65 489.84 998.79 507.81 993.81 525.77 982.49 543.74 966.58 561.71 942.43 579.1 918.51 592.07 895.18 599.89 872.73 602.58 851.43 600.93 831.47 596.41 812.98 590.95 796.02 586.68 780.59 585.57 766.62 589.17 753.98 598.36 742.5 613.17 731.95 632.82 722.09 655.74 712.65 679.89 703.36 702.96 683.34 704.65 664.19 701.13 646.02 691.75 628.89 676.7 612.81 657.04 597.74 634.47 583.61 611.08 570.28 589.06 557.61 570.33 545.43 556.3 533.54 547.65 521.77 544.26 509.93 545.22 497.87 549.01 481.09 546.61 479.7 521.63 481.01 503.76 480.44 485.89 478.1 468.02 474.34 450.15 469.74 432.28 465.03 414.41 460.94 396.54 458.09 378.67 456.94 360.8 457.66 342.93 460.14 325.07 464 307.2 468.63 289.33 473.32 271.46 491.15 254.79 509.05 237.94 526.87 222.1 544.44 208.28 561.58 197.16 578.15 188.97 594 183.53 609.02 180.24 623.14 178.21 636.32 176.41 648.57 173.8 659.96 169.52 670.59 162.99 680.62 153.98 694.95 136.08 699.66 129.5" stroke-dasharray="13 4" transform="rotate(71.14814814814815, 711, 400)" opacity="0.65"></path><path d="M716.06 155.57Q735.19 158.35 754.3 160.34 773.2 162.28 791.67 164.91 809.53 168.94 826.59 174.93 842.67 183.19 857.65 193.78 871.43 206.44 883.93 220.66 895.15 235.69 905.11 250.67 913.88 264.71 921.58 277 928.39 286.94 934.5 294.2 918.65 310.76 904.39 327.31 893.55 343.87 887.54 360.43 887.12 376.99 892.36 393.54 902.57 410.1 916.44 426.66 932.19 443.22 947.78 459.77 961.21 476.33 970.75 492.89 975.17 509.44 973.9 526 967.1 542.56 955.66 559.11 934.5 568.99 913.1 574.66 891.72 576.33 870.62 574.69 850.05 570.87 830.19 566.3 811.24 562.51 793.31 560.98 776.52 562.94 760.89 569.21 746.45 580.06 733.15 595.24 720.91 613.91 709.62 634.81 699.15 656.37 689.33 676.9 673.29 678.35 658.21 675.69 644.08 668.35 630.84 656.35 618.42 640.26 606.72 621.16 595.6 600.47 584.92 579.78 574.54 560.64 564.31 544.4 554.06 532.02 543.67 523.95 533.02 520.13 521.99 519.97 506.28 516.4 504.13 494.51 504.52 478.65 503.16 462.79 500.24 446.93 496.13 431.07 491.35 415.21 486.53 399.35 482.28 383.48 479.15 367.62 477.55 351.76 477.67 335.9 479.52 320.04 482.84 304.18 487.2 288.32 492.06 272.46 508.47 256.99 525.1 242.74 541.82 230.44 558.51 220.56 575.04 213.26 591.26 208.36 607.04 205.42 622.26 203.76 636.81 202.57 650.59 201 663.55 198.29 675.65 193.85 686.9 187.31 697.33 178.59 711.54 161.72 716.06 155.57" stroke-dasharray="6 2" transform="rotate(75.33333333333333, 711, 400)" opacity="0.68"></path><path d="M730.83 181.63Q747.05 183.85 762.82 185.35 778.01 186.68 792.5 188.43 806.2 191.17 819.02 195.38 830.92 201.42 841.84 209.45 851.8 219.46 860.82 231.21 868.95 244.28 876.28 258.12 882.9 272.05 888.97 285.39 894.64 297.48 900.08 307.8 887.17 322.71 876.54 337.62 869.3 352.53 866.22 367.44 867.6 382.35 873.32 397.26 882.76 412.18 894.94 427.09 908.6 442 922.29 456.91 934.6 471.82 944.23 486.73 950.17 501.65 951.81 516.56 948.98 531.47 941.96 546.38 924.16 549.6 905.84 549.89 887.19 547.9 868.4 544.51 849.64 540.76 831.1 537.74 812.94 536.49 795.29 537.9 778.29 542.59 762.03 550.87 746.58 562.69 732 577.64 718.3 594.98 705.48 613.74 693.51 632.75 682.32 650.83 670.49 652.05 659.39 650.1 648.95 644.51 639.08 635.2 629.66 622.44 620.58 606.85 611.72 589.31 602.96 570.9 594.18 552.74 585.27 535.94 576.14 521.41 566.69 509.85 556.86 501.65 546.59 496.84 531.48 488.57 528.11 468.07 527.53 454.14 525.43 440.21 522.03 426.27 517.68 412.34 512.84 398.41 508.02 384.47 503.72 370.54 500.38 356.61 498.36 342.68 497.88 328.74 498.97 314.81 501.52 300.88 505.28 286.94 509.84 273.01 524.61 260.82 539.68 250.51 554.97 242.36 570.41 236.4 585.89 232.45 601.32 230.13 616.57 228.92 631.55 228.19 646.14 227.3 660.25 225.62 673.78 222.64 686.66 217.98 698.84 211.47 710.26 203.08 725.87 187.32 730.83 181.63" stroke-dasharray="8 1" transform="rotate(79.51851851851852, 711, 400)" opacity="0.72"></path><path d="M739.16 207.7Q751.63 209.44 763.5 210.53 774.73 211.37 785.27 212.41 795.11 214.09 804.25 216.79 812.69 220.84 820.46 226.47 827.6 233.78 834.19 242.74 840.3 253.17 846.02 264.79 851.46 277.21 856.72 289.95 861.94 302.51 867.25 314.39 857.74 327.48 850.64 340.57 846.55 353.66 845.81 366.75 848.48 379.85 854.34 392.94 862.9 406.03 873.45 419.12 885.12 432.22 896.95 445.31 907.96 458.4 917.23 471.49 923.99 484.59 927.7 497.68 928.04 510.77 924.98 523.87 910.59 522.85 895.59 520.51 880.1 517.53 864.23 514.64 848.11 512.57 831.84 512.02 815.57 513.57 799.4 517.63 783.44 524.43 767.79 533.97 752.55 546.06 737.79 560.26 723.58 575.98 709.96 592.51 696.96 609.04 684.61 624.76 668.42 623 653.09 613.26 645.7 603.49 638.32 591.27 630.86 577.08 623.25 561.58 615.41 545.51 607.28 529.65 598.81 514.73 589.96 501.41 580.69 490.23 571 481.51 560.87 475.41 550.32 471.86 551.55 459.68 551.42 447.5 549.92 435.32 547.19 423.14 543.45 410.96 539 398.78 534.23 386.6 529.52 374.42 525.26 362.24 521.8 350.06 519.44 337.88 518.36 325.7 518.66 313.52 520.31 301.34 523.17 289.16 527.02 276.98 539.94 269.1 553.2 263.06 566.75 258.78 580.55 256.05 594.54 254.56 608.65 253.9 622.8 253.58 636.93 253.13 650.94 252.09 664.75 250.05 678.28 246.71 691.45 241.85 704.19 235.42 716.42 227.45 733.63 212.91 739.16 207.7" stroke-dasharray="9 10" transform="rotate(83.7037037037037, 711, 400)" opacity="0.75"></path><path d="M738.36 233.76Q755.22 235.7 770.6 236.83 783.69 239.64 795.62 245.13 806.13 256.78 816.19 272.37 821.14 282.21 826.18 292.9 831.38 304.13 836.83 315.57 830.7 326.78 826.75 337.98 825.23 349.19 826.23 360.4 829.69 371.61 835.39 382.81 842.97 394.02 851.95 405.23 861.76 416.44 871.77 427.65 881.35 438.85 889.9 450.06 896.86 461.27 901.8 472.48 898.87 488.13 881.6 490.25 869.35 488.4 856.65 487.48 843.58 487.92 830.19 490.03 816.56 494.07 802.78 500.14 788.92 508.25 775.05 518.28 761.24 529.97 747.57 542.98 734.1 556.87 720.89 571.13 707.99 585.25 695.45 598.7 683.21 597.55 670.9 590.57 664.55 583.41 658 574.26 651.21 563.37 644.14 551.08 636.75 537.82 629.03 524.07 620.94 510.34 612.49 497.1 603.67 484.83 594.49 473.91 584.95 464.65 575.08 457.24 575.03 446.62 573.84 436 571.58 425.38 568.39 414.76 564.48 404.14 560.09 393.52 555.5 382.9 551.01 372.28 546.9 361.66 543.43 351.04 540.82 340.42 539.23 329.8 538.77 319.18 539.47 308.56 541.28 297.95 544.08 287.33 555.02 283.57 566.27 281.09 577.83 279.68 589.67 279.07 601.77 278.95 614.09 278.96 626.59 278.78 639.22 278.09 651.93 276.59 664.68 274.07 677.39 270.36 690.01 265.38 702.47 259.12 714.73 251.66 732.54 238.45 738.36 233.76" stroke-dasharray="3 10" transform="rotate(87.88888888888889, 711, 400)" opacity="0.79"></path><path d="M728.7 259.83Q748.06 261.55 760.72 262.57 776.86 271.35 788.47 282.44 793.34 289.22 798.42 296.95 803.74 305.52 809.35 314.76 806.23 324.13 804.83 333.5 805.21 342.87 807.35 352.24 811.16 361.61 816.46 370.98 822.99 380.35 830.46 389.72 838.52 399.09 846.78 408.46 854.87 417.83 862.4 427.19 869.02 436.56 874.43 445.93 875.35 459.37 863.54 462.9 854.33 463.33 844.71 464.91 834.72 467.82 824.39 472.16 813.75 477.95 802.85 485.18 791.73 493.75 780.42 503.5 768.99 514.24 757.46 525.7 745.88 537.58 734.31 549.58 722.78 561.37 711.32 572.63 700.69 571.93 689.47 567.17 683.45 562.2 677.16 555.73 670.6 547.87 663.74 538.77 656.58 528.64 649.12 517.74 641.36 506.34 633.31 494.74 624.98 483.26 616.38 472.19 607.53 461.8 598.45 452.34 597.27 443.14 595.23 433.94 592.43 424.74 589.01 415.54 585.12 406.34 580.94 397.14 576.67 387.94 572.51 378.74 568.65 369.53 565.27 360.33 562.54 351.13 560.57 341.93 559.46 332.73 559.26 323.53 565.24 309.29 579.65 303.99 589.07 304.09 598.76 304.35 608.7 304.53 618.89 304.42 629.3 303.82 639.92 302.54 650.72 300.46 661.67 297.45 672.74 293.47 683.91 288.49 695.12 282.55 706.35 275.71 723.13 263.96 728.7 259.83" stroke-dasharray="4 13" transform="rotate(92.07407407407406, 711, 400)" opacity="0.82"></path><path d="M713.29 285.9Q729.87 286.87 746.31 287.86 754.95 290.75 764.17 296.25 774.15 304.71 785.07 316.18 784.73 331.48 789.06 346.78 797.5 362.08 808.97 377.38 821.98 392.68 834.87 407.98 845.97 423.28 853.86 438.58 841.58 441.42 828.09 447.89 813.45 458.25 797.74 472.28 781.09 489.32 763.64 508.28 745.59 527.84 727.1 546.56 716.75 546.61 705.51 543.13 693.36 535.65 680.29 524.21 666.35 509.31 651.59 491.88 636.12 473.14 620.06 454.44 615.48 438.77 609.04 423.1 601.56 407.44 594 391.77 587.35 376.11 582.45 360.44 579.94 344.77 580.14 329.1 594.12 329.9 608.9 330.28 624.5 329.24 640.92 325.99 658.1 320.01 675.96 311.15 694.41 299.61 713.29 285.9 713.29 285.9 713.29 285.9" stroke-dasharray="8 11" transform="rotate(96.25925925925927, 711, 400)" opacity="0.86"></path><path d="M697.14 311.96Q711.52 312.26 726.77 311.8 735.15 312.45 744.09 314.38 753.67 317.99 763.95 323.53 766.22 335.66 771.21 347.79 778.49 359.92 787.47 372.05 797.4 384.18 807.47 396.31 816.83 408.44 824.72 420.58 816.27 427.28 807.1 436.38 797.21 447.7 786.6 460.88 775.29 475.4 763.33 490.65 750.76 505.92 737.65 520.5 727.27 520.56 716.27 518.53 704.67 514.09 692.52 507.14 679.88 497.78 666.82 486.28 653.39 473.08 639.69 458.76 634.57 445.91 628.49 433.06 621.95 420.2 615.5 407.35 609.66 394.5 604.93 381.65 606.06 362.44 621.12 355.04 632.37 352.42 644.18 347.97 656.58 341.58 669.55 333.29 690.11 317.64 697.14 311.96" stroke-dasharray="1 1" transform="rotate(100.44444444444444, 711, 400)" opacity="0.89"></path><path d="M685.48 338.03Q698.66 338.01 712.75 337.1 728.61 337.02 745.66 338.78 749.01 347.93 753.66 357.08 759.41 366.23 765.98 375.38 773.06 384.53 780.32 393.68 787.43 402.83 794.05 411.98 788.49 420.14 782.59 429.37 776.34 439.48 769.73 450.26 762.75 461.42 755.39 472.7 747.66 483.8 739.56 494.44 730.05 494.48 720.25 493.44 710.2 491.16 699.93 487.55 689.47 482.57 678.86 476.26 668.14 468.7 657.35 460.03 652.55 450.19 647.4 440.34 642.13 430.5 636.99 420.66 632.23 410.82 628.07 400.97 626.91 385.38 636.25 376.92 643.65 373.09 651.35 368.12 659.37 362.02 667.72 354.89 680.95 342.43 685.48 338.03" stroke-dasharray="6 3" transform="rotate(104.62962962962963, 711, 400)" opacity="0.93"></path><path d="M682.09 364.1Q692.99 364.13 704.53 363.32 716.75 362.25 729.64 361.49 736.29 373.91 744.48 386.34 753.54 398.76 762.73 411.18 755.83 425.11 748.49 439.72 740.63 454.36 732.21 468.36 717.66 467.96 702.92 465.6 688.08 461.01 673.23 454.09 665.81 440.82 658.49 427.56 651.87 414.29 646.5 401.02 654.76 394.66 663.39 386.22 677.29 370.01 682.09 364.1" stroke-dasharray="3 2" transform="rotate(108.81481481481481, 711, 400)" opacity="0.96"></path></g></svg>
